<svg xmlns="http://www.w3.org/2000/svg" width="502" height="128" viewBox="0 0 502 128"><g fill-rule="evenodd"><g transform="translate(176 17.888)"><path fill-rule="nonzero" d="M0 90.112 13.824 90.112 13.824 56.32 37.76 56.32 62.464 90.112 78.848 90.112 53.12 55.296C67.456 52.352 75.392 42.624 75.392 27.52 75.392 9.216 63.616 0 42.88 0L0 0 0 90.112ZM13.824 44.16 13.824 12.288 43.648 12.288C55.552 12.288 61.44 18.048 61.44 27.904 61.44 38.016 55.04 44.16 43.648 44.16L13.824 44.16ZM117.808 91.648C137.264 91.648 147.76 81.792 147.76 62.208L147.76 25.344 134.448 25.344 134.448 61.568C134.448 74.88 128.304 79.104 117.808 79.104 107.312 79.104 101.168 75.136 101.168 61.568L101.168 25.344 87.856 25.344 87.856 62.208C87.856 81.152 97.456 91.648 117.808 91.648ZM189.024 91.648C199.904 91.648 206.816 87.04 210.656 81.536L210.656 90.112 223.968 90.112 223.968 0 210.656 0 210.656 33.408C205.792 27.264 197.984 23.808 188.896 23.808 172.896 23.808 157.664 34.816 157.664 58.112 157.664 80.512 172.128 91.648 189.024 91.648ZM191.072 79.232C179.04 79.232 171.104 70.912 171.104 57.856 171.104 43.52 179.68 36.224 190.816 36.224 200.8 36.224 210.912 42.112 210.912 58.368 210.912 73.216 201.312 79.232 191.072 79.232ZM268.944 91.648C286.48 91.648 297.616 83.072 299.92 70.912L285.968 70.912C284.176 75.904 279.184 79.232 268.944 79.232 257.552 79.232 249.744 73.472 248.848 62.72L301.328 62.72C303.504 41.216 291.728 23.808 268.944 23.808 249.104 23.808 235.536 37.12 235.536 58.624 235.536 78.592 247.312 91.648 268.944 91.648ZM268.56 36.224C279.568 36.224 286.224 41.472 287.632 51.84L248.848 51.84C250.128 41.088 258.064 36.224 268.56 36.224Z"/><polygon fill-rule="nonzero" points="313.152 90.112 326.464 90.112 326.464 0 313.152 0"/></g><path d="M128,0 L128,128 L0,128 L0,0 L128,0 Z M40,63.999 L16,64 L16,112 L64,112 L64,87.999 L40,88 L40,63.999 Z M88,64 L64,64 L64,87.999 L88,88 L88,64 Z M63.999,39.999 L40,40 L40,63.999 L64,64 L63.999,39.999 Z M112,16 L64,16 L63.999,39.999 L88,40 L88,64 L112,64 L112,16 Z"/></g></svg>